<svg width="16" height="16" viewBox="0 0 16 16" fill="none" xmlns="http://www.w3.org/2000/svg">
<path d="M12.0007 2.66683H2.66732V12.0002C1.93094 12.0002 1.33398 11.4032 1.33398 10.6668V2.66683C1.33398 1.93045 1.93094 1.3335 2.66732 1.3335H10.6673C11.4037 1.3335 12.0007 1.93045 12.0007 2.66683Z" fill="#B5B8C2"/>
<path fill-rule="evenodd" clip-rule="evenodd" d="M4.00065 5.3335C4.00065 4.59712 4.5976 4.00016 5.33398 4.00016H13.334C14.0704 4.00016 14.6673 4.59712 14.6673 5.3335V13.3335C14.6673 14.0699 14.0704 14.6668 13.334 14.6668H5.33398C4.5976 14.6668 4.00065 14.0699 4.00065 13.3335V5.3335ZM5.33398 5.3335H13.334V13.3335H5.33398V5.3335Z" fill="#B5B8C2"/>
</svg>
