<svg width="40" height="40" viewBox="0 0 40 40" fill="none" xmlns="http://www.w3.org/2000/svg">
<g opacity="0.9">
<path d="M20.0009 0.00019042C30.824 -0.0471427 40.0309 8.73542 39.9999 20.0622C39.9697 31.1109 31.0387 40.0384 19.9303 39.9999C8.73901 39.9622 0.00267468 30.8726 7.28087e-07 20.0553C-0.00294062 8.93732 8.9064 0.00019042 20.0009 0.00019042Z" fill="white"/>
<path d="M20.0007 4.00015C28.6592 3.96229 36.0247 10.9883 35.9999 20.0498C35.9758 28.8887 28.831 36.0307 19.9442 35.9999C10.9912 35.9697 4.00214 28.6981 4 20.0442C3.99765 11.1499 11.1251 4.00015 20.0007 4.00015Z" fill="#FECA00"/>
<path d="M26.1612 18.361C27.5634 18.3621 28.6997 19.4986 28.6951 20.8956C28.6905 22.2926 27.547 23.4343 26.1559 23.4347C24.7485 23.4347 23.6116 22.2915 23.6155 20.8791C23.6192 19.4758 24.7473 18.3599 26.1612 18.361Z" fill="#171615"/>
<path d="M13.8585 18.361C15.2716 18.361 16.3874 19.4753 16.3876 20.8871C16.3876 22.3036 15.2463 23.4536 13.8468 23.4325C12.2687 23.4088 11.2946 22.0871 11.3229 20.8636C11.3553 19.4715 12.4522 18.361 13.8585 18.361Z" fill="#171615"/>
<path d="M16.5266 25.7788C17.4236 26.8799 18.6306 27.2934 19.8842 27.3408C20.734 27.3301 21.4388 27.196 22.0997 26.8718C22.9336 26.4631 23.5891 25.8771 23.931 24.9882C24.0391 24.7079 23.9803 24.4914 23.7732 24.3771C23.5516 24.2547 23.3362 24.3243 23.1604 24.5778C22.9452 24.8922 22.6707 25.1616 22.3523 25.3708C21.4079 25.9879 20.3666 26.1629 19.2705 25.9862C18.2703 25.8249 17.4125 25.3942 16.8238 24.526C16.6877 24.3264 16.4666 24.2651 16.2682 24.3614C16.0699 24.4577 15.9768 24.6704 16.0492 24.8984C16.1511 25.2194 16.3131 25.5182 16.5266 25.7788Z" fill="#171615"/>
</g>
</svg>
