<svg width="36" height="48" viewBox="0 0 36 48" fill="none" xmlns="http://www.w3.org/2000/svg">
<g opacity="0.9">
<g filter="url(#filter0_d)">
<path d="M24.0009 2.00019C34.824 1.95286 44.0309 10.7354 43.9999 22.0622C43.9697 33.1109 35.0387 42.0384 23.9303 41.9999C12.739 41.9622 4.00267 32.8726 4 22.0553C3.99706 10.9373 12.9064 2.00019 24.0009 2.00019Z" fill="white"/>
</g>
<path d="M24.0007 6.00015C32.6592 5.96229 40.0247 12.9883 39.9999 22.0498C39.9758 30.8887 32.831 38.0307 23.9442 37.9999C14.9912 37.9697 8.00214 30.6981 8 22.0442C7.99765 13.1499 15.1251 6.00015 24.0007 6.00015Z" fill="#FECA00"/>
<path d="M30.1612 20.361C31.5634 20.3621 32.6997 21.4986 32.6951 22.8956C32.6905 24.2926 31.547 25.4343 30.1559 25.4347C28.7485 25.4347 27.6116 24.2915 27.6155 22.8791C27.6192 21.4758 28.7473 20.3599 30.1612 20.361Z" fill="#171615"/>
<path d="M17.8585 20.361C19.2716 20.361 20.3874 21.4753 20.3876 22.8871C20.3876 24.3036 19.2463 25.4536 17.8468 25.4325C16.2687 25.4088 15.2946 24.0871 15.3229 22.8636C15.3553 21.4715 16.4522 20.361 17.8585 20.361Z" fill="#171615"/>
<path d="M20.5266 27.7788C21.4236 28.8799 22.6306 29.2934 23.8842 29.3408C24.734 29.3301 25.4388 29.196 26.0997 28.8718C26.9336 28.463 27.5891 27.8771 27.931 26.9882C28.0391 26.7079 27.9803 26.4914 27.7732 26.3771C27.5516 26.2547 27.3362 26.3243 27.1604 26.5778C26.9452 26.8922 26.6707 27.1616 26.3523 27.3708C25.4079 27.9879 24.3666 28.1629 23.2705 27.9862C22.2703 27.8249 21.4125 27.3942 20.8238 26.526C20.6877 26.3264 20.4666 26.2651 20.2682 26.3614C20.0699 26.4577 19.9768 26.6704 20.0492 26.8984C20.1511 27.2194 20.3131 27.5182 20.5266 27.7788Z" fill="#171615"/>
</g>
<defs>
<filter id="filter0_d" x="0" y="0" width="48" height="48" filterUnits="userSpaceOnUse" color-interpolation-filters="sRGB">
<feFlood flood-opacity="0" result="BackgroundImageFix"/>
<feColorMatrix in="SourceAlpha" type="matrix" values="0 0 0 0 0 0 0 0 0 0 0 0 0 0 0 0 0 0 127 0"/>
<feOffset dy="2"/>
<feGaussianBlur stdDeviation="2"/>
<feColorMatrix type="matrix" values="0 0 0 0 0 0 0 0 0 0 0 0 0 0 0 0 0 0 0.25 0"/>
<feBlend mode="normal" in2="BackgroundImageFix" result="effect1_dropShadow"/>
<feBlend mode="normal" in="SourceGraphic" in2="effect1_dropShadow" result="shape"/>
</filter>
</defs>
</svg>
