<svg width="24" height="24" viewBox="0 0 24 24" fill="none" xmlns="http://www.w3.org/2000/svg">
<g clip-path="url(#clip0_2110_633)">
<path d="M4 20C4 17.7909 5.79088 16 8 16H12V20C12 22.2091 10.2091 24 8 24C5.79088 24 4 22.2091 4 20Z" fill="#24CB71"/>
<path d="M11.9998 0V8.00001H15.9998C18.2089 8.00001 19.9998 6.20912 19.9998 4C19.9998 1.79088 18.2089 0 15.9998 0H11.9998Z" fill="#FF7237"/>
<path d="M15.9668 16C18.1759 16 19.9668 14.2091 19.9668 12C19.9668 9.79086 18.1759 8 15.9668 8C13.7577 8 11.9668 9.79086 11.9668 12C11.9668 14.2091 13.7577 16 15.9668 16Z" fill="#00B6FF"/>
<path d="M4 4C4 6.20912 5.79088 8.00001 8 8.00001H12V0H8C5.79088 0 4 1.79088 4 4Z" fill="#FF3737"/>
<path d="M4 12C4 14.2091 5.79088 16 8 16H12V8H8C5.79088 8 4 9.79088 4 12Z" fill="#874FFF"/>
</g>
<defs>
<clipPath id="clip0_2110_633">
<rect width="24" height="24" fill="white"/>
</clipPath>
</defs>
</svg>
