<svg width="24" height="24" viewBox="0 0 24 24" fill="none" xmlns="http://www.w3.org/2000/svg">
<g clip-path="url(#clip0_2110_630)">
<path d="M0 6.00023C0 2.68911 2.68818 0 5.9993 0H17.9998C21.3118 0 24 2.68818 24 6.00023V17.9998C24 21.3118 21.3118 24 17.9998 24H5.9993C2.68818 24.0009 0 21.3118 0 18.0007V6.00023Z" fill="#FFDD00"/>
<path fill-rule="evenodd" clip-rule="evenodd" d="M15.952 4.57837H13.7755L15.5919 7.76789L11.598 4.57837H9.42145L11.4184 8.47408L7.24491 4.57837H5.06836L7.24491 9.54131L5.06836 19.4662H7.24491L11.4184 8.83512L9.42145 19.4662H11.598L15.5919 8.12332L13.7755 19.4662H15.952L19.9459 7.06171L15.952 4.58305V4.57837Z" fill="#020504"/>
</g>
<defs>
<clipPath id="clip0_2110_630">
<rect width="24" height="24" fill="white"/>
</clipPath>
</defs>
</svg>
